<?xml version="1.0" standalone="no"?>
<!DOCTYPE svg PUBLIC "-//W3C//DTD SVG 20010904//EN"
 "http://www.w3.org/TR/2001/REC-SVG-20010904/DTD/svg10.dtd">
<svg version="1.0" xmlns="http://www.w3.org/2000/svg"
 width="1342.000000pt" height="622.000000pt" viewBox="0 0 1342.000000 622.000000"
 preserveAspectRatio="xMidYMid meet">
<metadata>
Created by potrace 1.16, written by Peter Selinger 2001-2019
</metadata>
<g transform="translate(0.000000,622.000000) scale(0.100000,-0.100000)"
fill="#000000" stroke="none">
<path d="M0 3110 l0 -3110 6710 0 6710 0 0 3110 0 3110 -6710 0 -6710 0 0
-3110z m2120 2800 c0 -11 -6 -23 -14 -26 -8 -3 -17 -12 -20 -20 -4 -10 3 -14
29 -14 31 0 35 3 35 25 0 20 5 25 25 25 20 0 25 -5 25 -25 0 -18 5 -25 20 -25
13 0 20 -7 20 -20 0 -13 -7 -20 -20 -20 -18 0 -20 -7 -20 -56 0 -47 3 -57 20
-61 31 -8 26 -43 -7 -43 -47 0 -63 25 -63 97 l0 64 -32 -3 -33 -3 -3 -77 c-3
-75 -4 -78 -27 -78 -24 0 -25 2 -25 80 0 47 -4 80 -10 80 -5 0 -10 9 -10 20 0
11 4 20 10 20 5 0 13 12 16 26 4 16 19 31 38 40 42 18 46 17 46 -6z m-1160
-46 c0 -45 0 -45 22 -30 28 20 51 20 88 1 54 -28 61 -127 12 -165 -28 -23 -81
-26 -101 -7 -11 10 -14 10 -18 0 -3 -7 -16 -13 -29 -13 l-24 0 0 130 0 130 25
0 c23 0 25 -4 25 -46z m340 -24 c0 -38 3 -70 8 -70 4 0 20 18 35 40 22 31 35
40 58 40 16 0 29 -3 29 -6 0 -4 -18 -27 -41 -51 l-40 -44 41 -49 42 -50 -31 0
c-23 0 -36 9 -57 35 -14 19 -30 35 -35 35 -5 0 -9 -16 -9 -35 0 -31 -3 -35
-25 -35 l-25 0 0 130 0 130 25 0 c24 0 25 -2 25 -70z m290 -5 c17 -9 30 -17
30 -19 0 -3 3 -11 6 -20 8 -22 -25 -21 -66 2 -31 17 -31 17 -51 -7 -21 -26
-24 -53 -9 -82 11 -20 54 -26 65 -9 8 13 65 13 65 1 0 -21 -54 -51 -90 -51
-49 0 -87 31 -96 76 -17 89 66 151 146 109z m361 -14 c27 -27 29 -35 29 -100
0 -69 -1 -71 -25 -71 -14 0 -25 5 -25 10 0 7 -6 7 -19 0 -27 -14 -74 -13 -95
3 -23 17 -24 66 -1 83 9 7 39 15 66 19 44 6 48 9 39 26 -13 23 -43 25 -60 4
-7 -8 -23 -15 -35 -15 -31 0 -22 35 14 55 42 23 79 18 112 -14z m2459 -2151
c0 -32 -4 -40 -18 -40 -10 0 -23 -5 -30 -12 -7 -7 -12 -20 -12 -30 0 -13 8
-18 30 -18 28 0 30 -2 30 -40 0 -38 -2 -40 -30 -40 l-30 0 0 -140 0 -140 -50
0 -50 0 0 140 c0 133 -1 140 -20 140 -17 0 -20 7 -20 40 0 33 3 40 20 40 13 0
20 7 20 20 0 66 57 119 128 120 31 0 32 -1 32 -40z m-1830 -220 l0 -240 -50 0
-50 0 0 233 c0 129 3 237 7 240 3 4 26 7 50 7 l43 0 0 -240z m-1376 196 c79
-33 102 -122 45 -178 -23 -24 -27 -33 -17 -39 7 -5 16 -9 20 -9 13 0 38 -58
38 -89 0 -46 -18 -76 -60 -100 -33 -18 -54 -21 -159 -21 l-121 0 0 225 0 225
110 0 c71 0 122 -5 144 -14z m1966 -35 c0 -39 1 -40 38 -43 35 -3 37 -5 40
-40 l3 -38 -40 0 -41 0 0 -99 0 -100 38 -3 c35 -3 37 -5 40 -42 l3 -38 -66 4
c-100 6 -109 19 -113 163 -3 105 -5 115 -23 115 -16 0 -19 7 -19 40 0 33 3 40
20 40 17 0 20 7 20 40 l0 40 50 0 50 0 0 -39z m1980 0 c0 -39 1 -40 38 -43 35
-3 37 -5 40 -40 l3 -38 -40 0 -41 0 0 -99 0 -100 38 -3 c35 -3 37 -5 40 -40
l3 -38 -61 0 c-55 0 -65 3 -91 29 -29 29 -29 31 -29 140 0 104 -1 111 -20 111
-17 0 -20 7 -20 40 0 33 3 40 20 40 17 0 20 7 20 40 l0 40 50 0 50 0 0 -39z
m-3692 -223 l2 -178 -50 0 -50 0 0 181 0 180 48 -3 47 -3 3 -177z m322 163
c36 -18 80 -73 80 -97 0 -10 -14 -14 -49 -14 -41 0 -51 4 -65 25 -33 50 -116
25 -132 -40 -11 -43 3 -98 31 -122 34 -30 56 -29 93 2 22 19 41 25 76 25 25 0
46 -4 46 -9 0 -23 -50 -79 -90 -99 -78 -40 -179 -15 -227 57 -61 90 -24 235
72 277 44 19 124 17 165 -5z m238 -163 l2 -178 -50 0 -50 0 0 173 c0 96 3 177
7 181 4 4 25 6 48 4 l40 -3 3 -177z m315 168 c39 -16 87 -70 87 -97 0 -16 -7
-19 -46 -19 -37 0 -50 5 -66 25 -25 32 -73 33 -105 3 -30 -29 -33 -123 -4
-159 25 -31 86 -32 111 -1 14 17 29 22 64 22 51 0 55 -7 29 -52 -43 -72 -167
-98 -243 -51 -72 44 -103 160 -66 246 34 82 148 122 239 83z m573 -7 c53 -25
83 -71 91 -138 l6 -51 -132 0 c-123 0 -131 -1 -131 -19 0 -25 46 -61 78 -61
14 0 36 9 48 21 17 16 32 20 73 17 l53 -3 -24 -35 c-28 -42 -99 -80 -148 -80
-43 0 -107 29 -137 61 -31 34 -43 72 -43 132 1 138 138 219 266 156z m621 2
c31 -19 31 -19 36 0 5 17 13 20 49 17 l43 -3 3 -177 2 -178 -50 0 c-45 0 -50
2 -50 22 0 19 -1 20 -18 5 -81 -73 -221 -22 -252 93 -15 54 -2 135 29 179 42
59 145 80 208 42z m431 -1 c27 -17 62 -70 62 -95 0 -3 -19 -5 -41 -5 -32 0
-47 6 -65 25 -26 28 -51 32 -79 11 -31 -22 -11 -43 63 -65 82 -25 122 -57 122
-100 0 -65 -39 -104 -119 -117 -53 -8 -121 17 -156 57 -38 46 -33 59 23 59 36
0 50 -5 60 -20 15 -24 73 -27 92 -5 19 23 -2 41 -80 64 -77 24 -110 55 -110
103 0 40 15 65 53 88 44 27 131 27 175 0z m748 -1 c53 -25 83 -71 91 -138 l6
-51 -132 0 c-123 0 -131 -1 -131 -19 0 -25 46 -61 78 -61 14 0 36 9 48 21 17
16 32 20 73 17 l53 -3 -24 -35 c-28 -42 -99 -80 -148 -80 -43 0 -107 29 -137
61 -31 34 -43 72 -43 132 1 138 138 219 266 156z m244 -159 l0 -180 -45 0 -45
0 0 180 0 180 45 0 45 0 0 -180z m558 157 c24 -22 32 -21 32 3 0 17 7 20 45
20 l45 0 0 -180 0 -180 -45 0 c-39 0 -45 3 -45 21 l0 20 -29 -20 c-76 -54
-183 -26 -229 60 -19 36 -23 55 -20 109 4 73 28 118 82 152 39 24 135 21 164
-5z m415 9 c36 -15 67 -54 67 -86 0 -17 -6 -20 -44 -20 -36 0 -46 4 -51 20 -8
25 -46 35 -75 20 -38 -20 -19 -43 58 -70 90 -32 117 -57 117 -109 0 -50 -33
-87 -89 -102 -75 -20 -170 12 -194 66 -19 41 -15 45 36 45 37 0 50 -4 60 -21
10 -15 21 -19 50 -17 32 3 37 7 37 27 0 21 -9 27 -65 46 -36 11 -75 26 -86 33
-40 21 -50 92 -20 131 38 48 131 66 199 37z m3982 -465 c18 -4 -28 -10 -120
-14 -521 -26 -1031 -104 -1924 -293 -168 -35 -309 -63 -314 -61 -19 6 821 183
1153 243 352 62 546 90 870 123 102 10 293 11 335 2z m-8105 -202 l0 -81 36
22 c44 28 130 24 172 -6 39 -29 72 -100 72 -154 -1 -147 -150 -241 -254 -159
l-26 20 0 -20 c0 -18 -6 -21 -50 -21 l-50 0 0 233 c0 129 3 237 7 240 3 4 26
7 50 7 l43 0 0 -81z m1908 -161 l2 -238 -50 0 c-44 0 -50 3 -50 21 l0 20 -26
-20 c-58 -46 -157 -32 -208 30 -53 63 -56 178 -7 248 43 59 145 80 209 41 l32
-20 0 73 c0 41 3 77 7 81 4 4 25 6 48 4 l40 -3 3 -237z m610 0 l2 -238 -50 0
c-44 0 -50 3 -50 21 l0 20 -26 -20 c-58 -46 -157 -32 -208 30 -53 63 -56 178
-7 248 43 59 145 80 209 41 l32 -20 0 73 c0 41 3 77 7 81 4 4 25 6 48 4 l40
-3 3 -237z m-3165 108 c36 -15 67 -54 67 -86 0 -17 -6 -20 -44 -20 -36 0 -46
4 -51 20 -8 25 -46 35 -75 20 -38 -20 -19 -43 58 -70 90 -32 117 -57 117 -109
0 -50 -33 -87 -89 -102 -75 -20 -170 12 -194 66 -19 41 -15 45 36 45 37 0 50
-4 60 -21 10 -15 21 -19 50 -17 32 3 37 7 37 27 0 21 -9 27 -65 46 -36 11 -75
26 -86 33 -40 21 -50 92 -20 131 38 48 131 66 199 37z m393 -5 c72 -33 113
-122 94 -205 -42 -189 -318 -191 -360 -4 -36 160 114 278 266 209z m840 4 c5
-13 9 -13 34 0 55 29 127 18 176 -27 17 -15 23 -16 27 -5 3 8 21 21 40 30 74
35 164 11 199 -54 15 -28 18 -57 18 -161 l0 -128 -50 0 -50 0 0 120 c0 107 -2
122 -20 140 -25 25 -71 26 -101 1 -22 -18 -24 -27 -28 -140 l-3 -121 -43 0
-43 0 -4 121 c-3 113 -5 122 -27 140 -30 25 -76 24 -101 -1 -18 -18 -20 -33
-20 -140 l0 -120 -50 0 -50 0 0 180 0 180 45 0 c31 0 47 -5 51 -15z m820 -6
c53 -25 83 -71 91 -138 l6 -51 -132 0 c-123 0 -131 -1 -131 -19 0 -25 46 -61
78 -61 14 0 36 9 48 21 17 16 32 20 73 17 l53 -3 -24 -35 c-28 -42 -99 -80
-148 -80 -43 0 -107 29 -137 61 -31 34 -43 72 -43 132 1 138 138 219 266 156z
m682 -161 l2 -178 -50 0 -50 0 0 181 0 180 48 -3 47 -3 3 -177z m740 159 c24
-22 32 -21 32 3 0 17 7 20 45 20 l45 0 0 -180 0 -180 -45 0 c-39 0 -45 3 -45
21 l0 20 -29 -20 c-76 -54 -183 -26 -229 60 -19 36 -23 55 -20 109 4 73 28
118 82 152 39 24 135 21 164 -5z m-3612 -895 c17 -11 22 -35 12 -56 -7 -12 -6
-22 1 -29 32 -32 -3 -77 -60 -77 l-39 0 0 85 0 85 38 0 c20 0 42 -4 48 -8z
m2382 -724 c15 -15 16 -58 0 -58 -6 0 -4 -7 5 -18 38 -42 9 -82 -59 -82 l-44
0 0 85 0 85 43 0 c24 0 48 -5 55 -12z m-460 -470 c9 -9 12 -81 12 -264 0 -216
-2 -255 -16 -268 -14 -14 -119 -16 -1004 -16 -885 0 -990 2 -1004 16 -14 13
-16 52 -16 268 0 183 3 255 12 264 17 17 1999 17 2016 0z"/>
<path d="M1040 3339 l0 -62 60 6 c73 6 90 19 90 63 0 42 -21 54 -94 54 l-56 0
0 -61z"/>
<path d="M3427 3479 c-29 -17 -50 -68 -43 -107 10 -65 69 -99 131 -76 23 9 45
57 45 99 0 68 -77 117 -133 84z"/>
<path d="M5391 3464 c-27 -22 -31 -32 -31 -75 0 -65 30 -99 88 -99 69 0 108
72 78 144 -25 59 -85 73 -135 30z"/>
<path d="M1847 2759 c-24 -14 -47 -62 -47 -98 0 -44 44 -91 85 -91 18 0 41 3
50 6 23 9 45 57 45 99 0 68 -77 117 -133 84z"/>
<path d="M3477 2759 c-29 -17 -50 -68 -43 -107 10 -65 69 -99 131 -76 23 9 45
57 45 99 0 68 -77 117 -133 84z"/>
<path d="M4087 2759 c-29 -17 -50 -68 -43 -107 10 -65 69 -99 131 -76 23 9 45
57 45 99 0 68 -77 117 -133 84z"/>
<path d="M1405 2747 c-54 -46 -35 -174 27 -179 87 -6 131 50 107 136 -18 65
-84 86 -134 43z"/>
<path d="M4511 2744 c-27 -22 -31 -32 -31 -75 0 -65 30 -99 88 -99 69 0 108
72 78 144 -25 59 -85 73 -135 30z"/>
</g>
</svg>
