<?xml version="1.0" standalone="no"?>
<!DOCTYPE svg PUBLIC "-//W3C//DTD SVG 20010904//EN"
 "http://www.w3.org/TR/2001/REC-SVG-20010904/DTD/svg10.dtd">
<svg version="1.0" xmlns="http://www.w3.org/2000/svg"
 width="500.000000pt" height="500.000000pt" viewBox="0 0 500.000000 500.000000"
 preserveAspectRatio="xMidYMid meet">

<g transform="translate(0.000000,500.000000) scale(0.100000,-0.100000)"
fill="#000000" stroke="none">
<path d="M0 2500 l0 -2500 2500 0 2500 0 0 2500 0 2500 -2500 0 -2500 0 0
-2500z m2660 1240 c41 -12 105 -37 141 -56 74 -39 180 -121 187 -144 3 -8 -11
-1 -29 16 -133 120 -323 194 -498 194 -133 0 -265 -62 -366 -171 l-50 -54 475
-3 c261 -1 480 -4 487 -6 8 -3 -33 -98 -116 -268 l-129 -263 124 -3 124 -3 0
-24 0 -25 -138 0 -139 0 -160 -327 -161 -328 56 -3 c75 -4 172 13 257 46 l70
28 5 274 5 275 93 3 92 3 0 -326 0 -326 -92 3 -93 3 -3 38 c-3 32 -6 37 -20
32 -113 -48 -232 -75 -330 -75 l-52 0 -47 -95 -48 -95 -97 0 c-60 0 -98 4 -98
10 0 6 23 55 50 110 28 55 50 102 50 104 0 2 -29 18 -65 34 -375 176 -544 602
-388 982 95 234 310 407 567 456 93 18 240 11 336 -16z"/>
<path d="M1997 3442 c-83 -157 -114 -302 -104 -486 11 -216 89 -405 218 -535
46 -46 116 -97 124 -90 2 3 69 137 149 299 l146 295 -155 3 -155 3 0 24 0 25
168 0 167 0 105 211 c82 165 114 219 147 250 l43 39 -404 0 c-375 0 -405 1
-408 17 -2 11 -18 -10 -41 -55z"/>
</g>
</svg>
